<svg xmlns="http://www.w3.org/2000/svg" viewBox="0 0 179.76 34.89"><defs><style>.cls-1{fill:#f47929;}</style></defs><g id="Camada_2" data-name="Camada 2"><g id="Camada_1-2" data-name="Camada 1"><path class="cls-1" d="M131.47,34.89H96.59L103.3,0h34.88Zm-26.9-6.59H126l4.17-21.7H108.74Z"/><polygon class="cls-1" points="89.88 34.89 83.17 34.89 89.88 0.01 96.59 0.01 89.88 34.89"/><polygon class="cls-1" points="0.98 29.76 0 34.89 5.11 34.89 32.61 11.84 28.18 34.89 34.88 34.89 41.59 0 36.47 0 0.98 29.76"/><path class="cls-1" d="M149.08,0h-4.2l-6.7,34.88h6.71L149.48,11l19.38,23.92h4.2l.82-4.27Zm24,0-3,15.47,5.42,6.71L179.76,0Z"/><polygon class="cls-1" points="83.18 0.01 48.3 0.01 47.03 6.6 70.19 6.6 42.58 29.75 41.59 34.88 76.47 34.88 77.74 28.3 54.57 28.3 82.19 5.13 83.18 0.01"/></g></g></svg>