<svg width="867" height="170" viewBox="0 0 867 170" fill="none" xmlns="http://www.w3.org/2000/svg">
<path fill-rule="evenodd" clip-rule="evenodd" d="M106.811 19.8449L126.656 0C132.274 5.61758 132.273 14.7255 126.656 20.343L119.072 27.9266C115.285 24.8383 111.179 22.1255 106.811 19.8449ZM27.3056 140.036C11.1764 126.751 0.892578 106.625 0.892578 84.097C0.892578 44.091 33.3238 11.6597 73.3298 11.6597C85.4088 11.6597 96.7972 14.6162 106.811 19.8449L68.0756 58.5803C62.4581 64.1979 62.458 73.3058 68.0756 78.9233L119.072 27.9266C135.363 41.2094 145.767 61.4382 145.767 84.097C145.767 124.103 113.336 156.534 73.3298 156.534C61.1155 156.534 49.6073 153.511 39.5126 148.172L78.247 109.438C83.8646 103.82 83.8646 94.7125 78.247 89.0949L27.3056 140.036ZM27.3056 140.036C31.0743 143.141 35.1622 145.872 39.5126 148.172L17.6849 170C12.0674 164.382 12.0674 155.275 17.6849 149.657L27.3056 140.036Z" fill="url(#paint0_linear_2393_3250)"/>
<path fill-rule="evenodd" clip-rule="evenodd" d="M423.896 99.5005C426.438 103.811 429.957 107.143 434.454 109.592C438.852 112.042 443.935 113.217 449.507 113.217C455.079 113.217 460.064 112.042 464.561 109.592C469.057 107.143 472.577 103.811 475.118 99.5005C477.66 95.1894 478.93 90.3885 478.93 84.9998C478.93 79.611 477.66 74.8101 475.118 70.4991C472.577 66.1881 469.057 62.8568 464.561 60.4074C460.162 57.9579 455.079 56.7822 449.507 56.7822C443.935 56.7822 438.95 57.9579 434.454 60.4074C429.957 62.8568 426.438 66.1881 423.896 70.4991C421.355 74.8101 420.084 79.709 420.084 84.9998C420.084 90.3885 421.355 95.1894 423.896 99.5005ZM466.223 94.9935C464.561 97.9328 462.313 100.186 459.38 101.852C456.448 103.42 453.124 104.301 449.507 104.301C445.793 104.301 442.567 103.518 439.634 101.852C436.8 100.284 434.454 97.9328 432.792 94.9935C431.13 92.0542 430.25 88.7229 430.25 85.0977C430.25 81.4726 431.13 78.1413 432.792 75.202C434.454 72.2627 436.702 70.0092 439.634 68.3436C442.567 66.678 445.89 65.8941 449.507 65.8941C453.222 65.8941 456.448 66.678 459.38 68.3436C462.215 69.9112 464.561 72.2627 466.223 75.202C467.884 78.1413 468.764 81.4726 468.764 85.0977C468.764 88.7229 467.884 92.0542 466.223 94.9935ZM202 106.653C204.346 108.612 207.474 110.278 211.384 111.454C215.294 112.629 219.4 113.217 223.408 113.119C228.197 113.119 232.303 112.434 235.626 110.964C238.95 109.494 241.394 107.535 243.056 105.085C244.717 102.636 245.499 99.8924 245.499 96.8551C245.499 93.3279 244.62 90.4865 242.762 88.429C240.905 86.2735 238.755 84.7058 236.115 83.7261C233.574 82.7463 230.25 81.7665 226.145 80.7867C223.212 80.1009 220.866 79.4151 219.106 78.8272C217.347 78.2393 215.881 77.4555 214.805 76.4757C213.73 75.496 213.144 74.2222 213.144 72.6546C213.144 70.4011 214.121 68.6375 216.076 67.2658C218.031 65.8941 221.062 65.2083 225.069 65.2083C227.513 65.2083 230.055 65.6002 232.694 66.2861C235.333 67.0699 237.777 68.1476 240.221 69.5193L243.447 61.6811C241.101 60.1135 238.266 58.8398 235.138 58.0559C231.912 57.1741 228.588 56.7822 225.265 56.7822C220.475 56.7822 216.369 57.4681 212.948 58.9377C209.625 60.4074 207.181 62.367 205.519 64.8164C203.857 67.2658 203.075 70.0092 203.075 73.0465C203.075 76.6717 203.955 79.513 205.812 81.6685C207.67 83.824 209.918 85.3917 212.459 86.3715C215.099 87.3512 218.422 88.331 222.626 89.3108C224.67 89.789 226.43 90.3148 227.904 90.7554L227.904 90.7554C228.544 90.9468 229.131 91.122 229.664 91.2703C231.423 91.7602 232.889 92.642 233.965 93.6218C235.04 94.6996 235.626 95.9733 235.626 97.5409C235.626 99.6964 234.649 101.46 232.596 102.734C230.641 104.007 227.611 104.693 223.505 104.693C220.28 104.693 216.956 104.105 213.73 103.028C210.504 101.95 207.767 100.48 205.519 98.7166L202 106.653ZM270.919 88.5275C270.919 96.4637 273.069 102.636 277.272 106.849C281.574 111.062 287.439 113.218 295.063 113.218C302.59 113.218 308.455 111.062 312.658 106.849C316.862 102.538 318.915 96.4637 318.915 88.5275V57.5666H308.944V88.1356C308.944 98.9131 304.252 104.302 295.063 104.302C285.777 104.302 281.183 98.9131 281.183 88.1356V57.5666H270.919V88.5275ZM394.775 88.9194C396.535 91.2709 397.414 94.1122 397.414 97.5415C397.414 102.342 395.557 105.968 391.94 108.515C388.324 111.062 382.947 112.434 376.007 112.434H348.832V57.5666H374.443C380.894 57.5666 385.88 58.8403 389.399 61.3877C392.918 63.9351 394.677 67.3644 394.677 71.8713C394.677 74.6147 394.091 76.9662 392.82 79.1217C391.549 81.1792 389.888 82.8448 387.639 84.0205C390.572 84.9023 393.016 86.568 394.775 88.9194ZM358.998 65.6008V80.6893H373.368C376.887 80.6893 379.624 80.0035 381.579 78.7298C383.436 77.456 384.413 75.5945 384.413 73.145C384.413 70.5976 383.436 68.736 381.579 67.4623C379.721 66.1886 376.984 65.5028 373.368 65.5028H358.998V65.6008ZM387.151 96.5617C387.151 91.2709 383.24 88.6255 375.323 88.6255H358.9V104.498H375.323C383.24 104.4 387.151 101.754 387.151 96.5617ZM541.196 112.434L530.053 96.3657C529.564 96.4637 528.88 96.4637 527.902 96.4637H515.586V112.434H505.419V57.5666H527.902C532.692 57.5666 536.798 58.3504 540.317 59.9181C543.836 61.4857 546.573 63.7392 548.43 66.6785C550.287 69.6178 551.265 73.0471 551.265 77.0641C551.265 81.1792 550.287 84.7064 548.235 87.7437C546.182 90.683 543.347 92.9365 539.632 94.4062L552.242 112.434H541.196ZM537.58 69.03C535.331 67.1684 531.91 66.1886 527.511 66.1886H515.586V88.0376H527.511C531.91 88.0376 535.331 87.0579 537.58 85.1963C539.828 83.3347 541.001 80.5913 541.001 77.0641C541.001 73.5369 539.828 70.8915 537.58 69.03ZM626.825 97.5415C626.825 94.1122 625.945 91.2709 624.186 88.9194C622.426 86.568 619.983 84.9023 617.05 84.0205C619.298 82.8448 620.96 81.1792 622.231 79.1217C623.502 76.9662 624.088 74.6147 624.088 71.8713C624.088 67.3644 622.329 63.9351 618.81 61.3877C615.29 58.8403 610.305 57.5666 603.854 57.5666H578.243V112.434H605.418C612.358 112.434 617.734 111.062 621.351 108.515C624.968 105.968 626.825 102.342 626.825 97.5415ZM602.778 80.6893H588.409V65.6008V65.5028H602.778C606.395 65.5028 609.132 66.1886 610.989 67.4623C612.847 68.736 613.824 70.5976 613.824 73.145C613.824 75.5945 612.847 77.456 610.989 78.7298C609.034 80.0035 606.297 80.6893 602.778 80.6893ZM604.831 88.6255C612.749 88.6255 616.659 91.2709 616.659 96.5617C616.659 101.754 612.651 104.4 604.831 104.498H588.409V88.6255H604.831ZM653.423 57.5666H663.589V112.434H653.423V57.5666ZM686.856 66.1886H705.038V112.434H715.204V66.1886H733.288V57.5666H686.856V66.1886ZM762.124 99.697L756.748 112.434H746.288L770.922 57.5666H780.892L805.623 112.434H794.968L789.494 99.697H762.124ZM786.073 91.7608L775.809 67.7563L765.545 91.7608H786.073ZM838.359 57.5666H828.193V112.434H867V103.812H838.359V57.5666Z" fill="#004E7A"/>
<defs>
<linearGradient id="paint0_linear_2393_3250" x1="-61.9092" y1="280.049" x2="-179.534" y2="-221.491" gradientUnits="userSpaceOnUse">
<stop stop-color="#00196F"/>
<stop offset="0.330483" stop-color="#13B0D9"/>
<stop offset="0.61175" stop-color="#9AF3FA"/>
</linearGradient>
</defs>
</svg>