<svg width="100" height="100" fill="none" xmlns="http://www.w3.org/2000/svg"><path d="M50 95c24.853 0 45-20.147 45-45S74.853 5 50 5 5 25.147 5 50s20.147 45 45 45Z" fill="#fff" stroke="#EC4899" stroke-width="10"/><path d="M55.822 23.75 50 19l-5.972 4.797m11.794 6.25L50 34.797 44.028 30m11.794 46.047L50 80.797 44.028 76m11.794-6.25L50 65l-5.972 4.796m31.484-27.853 1.202-7.417-7.14-2.773m.485 13.339-7.025-2.668 1.168-7.57m-33.98 33.238-7.025-2.668 1.168-7.57m11.31 7.09 1.202-7.418-7.14-2.773m.485-23.048-7.025 2.667 1.168 7.57m11.31-7.089 1.202 7.417-7.14 2.774m45.775 12.81 1.202 7.416-7.14 2.774m.485-13.34-7.025 2.668 1.168 7.57" stroke="#EC4899" stroke-width="3"/><path d="m45.554 42.26 4.5-.036 4.5.036 2.28 3.879 2.22 3.915-2.22 3.915-2.28 3.879-4.5.036-4.5-.036-2.281-3.88-2.22-3.914 2.22-3.915 2.28-3.88Z" stroke="#EC4899" stroke-width="5"/></svg>